# xmcd CD database file
#
# Track frame offsets:
#	150
#	9126
#	21591
#	33462
#	47644
#	57274
#	70720
#	81957
#	94178
#	105157
#	118439
#	128066
#	144239
#
# Disc length: 2080 seconds
#
# Revision: 0
# Processed by: cddbd v1.5.2PL0 Copyright (c) Steve Scherf et al.
# Submitted via: ACXtractor (MTCDDB.DLL V2003.07.15)
#
DISCID=a6081e0d
DTITLE=The True Brothers - Country Gold
DYEAR=2002
DGENRE=Country
TTITLE0=Love's Gonna Live Here Again
TTITLE1=The Wild Side of Life
TTITLE2=Hurt her once for me
TTITLE3=I'm a lonesome fugitive
TTITLE4=Honky Tonk Song
TTITLE5=Four Strong Winds
TTITLE6=Waterloo
TTITLE7=Take these chains from my heart
TTITLE8=I'll go down swinging
TTITLE9=All for the love of a girl
TTITLE10=Billy Bayou
TTITLE11=The Long Black Veil
TTITLE12=Thanks a lot
EXTD=ID3G:   2 YEAR: 2002
EXTT0=
EXTT1=
EXTT2=
EXTT3=
EXTT4=
EXTT5=
EXTT6=
EXTT7=
EXTT8=
EXTT9=
EXTT10=
EXTT11=
EXTT12=
PLAYORDER=
